<svg xmlns="http://www.w3.org/2000/svg" width="330.853" height="254.778" viewBox="0 0 330.853 254.778">
  <g id="Grupo_9183" data-name="Grupo 9183" transform="translate(-1027.745 -404.414)">
    <g id="Grupo_9182" data-name="Grupo 9182">
      <path id="Trazado_9107" data-name="Trazado 9107" d="M1358.6,626.14v16.3a16.8,16.8,0,0,1-16.752,16.752H1044.5a16.8,16.8,0,0,1-16.752-16.752v-16.3H1358.6Z" fill="#e73f3f"/>
      <path id="Trazado_9108" data-name="Trazado 9108" d="M1358.6,461.651v17.456H1027.745V461.651A16.8,16.8,0,0,1,1044.5,444.9h59.789V421.166a16.8,16.8,0,0,1,16.752-16.752h144.267a16.8,16.8,0,0,1,16.752,16.752V444.9h59.789A16.8,16.8,0,0,1,1358.6,461.651ZM1260.013,444.9V433.292a11.464,11.464,0,0,0-11.433-11.421H1137.763a11.457,11.457,0,0,0-11.434,11.421V444.9Z" fill="#e73f3f"/>
      <rect id="Rectángulo_6111" data-name="Rectángulo 6111" width="6.302" height="147.033" transform="translate(1348.573 479.107)" fill="#c52929"/>
      <rect id="Rectángulo_6112" data-name="Rectángulo 6112" width="6.315" height="147.033" transform="translate(1342.258 479.107)" fill="#ff5e5e"/>
      <rect id="Rectángulo_6113" data-name="Rectángulo 6113" width="6.302" height="147.033" transform="translate(1335.956 479.107)" fill="#c52929"/>
      <rect id="Rectángulo_6114" data-name="Rectángulo 6114" width="6.315" height="147.033" transform="translate(1329.641 479.107)" fill="#ff5e5e"/>
      <rect id="Rectángulo_6115" data-name="Rectángulo 6115" width="6.302" height="147.033" transform="translate(1323.339 479.107)" fill="#c52929"/>
      <rect id="Rectángulo_6116" data-name="Rectángulo 6116" width="6.315" height="147.033" transform="translate(1317.024 479.107)" fill="#ff5e5e"/>
      <rect id="Rectángulo_6117" data-name="Rectángulo 6117" width="6.302" height="147.033" transform="translate(1310.722 479.107)" fill="#c52929"/>
      <rect id="Rectángulo_6118" data-name="Rectángulo 6118" width="6.315" height="147.033" transform="translate(1304.406 479.107)" fill="#ff5e5e"/>
      <rect id="Rectángulo_6119" data-name="Rectángulo 6119" width="6.302" height="147.033" transform="translate(1298.104 479.107)" fill="#c52929"/>
      <path id="Trazado_9109" data-name="Trazado 9109" d="M1298.1,479.107V626.14H1087.773V479.107Zm-42.026,73.63a62.913,62.913,0,1,0-62.913,62.913A62.98,62.98,0,0,0,1256.078,552.737Z" fill="#ff5e5e"/>
      <path id="Trazado_9110" data-name="Trazado 9110" d="M1193.165,489.823a62.914,62.914,0,1,1-62.913,62.914A62.98,62.98,0,0,1,1193.165,489.823Zm58.725,62.914a58.725,58.725,0,1,0-58.725,58.725A58.792,58.792,0,0,0,1251.89,552.737Z" fill="#fff"/>
      <path id="Trazado_9111" data-name="Trazado 9111" d="M1193.165,494.011a58.725,58.725,0,1,1-58.725,58.726A58.792,58.792,0,0,1,1193.165,494.011Zm31.643,69.761V541.7H1204.04V521.094h-22.07V541.7h-20.435v22.071h20.435v20.607h22.07V563.772Z" fill="#ff5e5e"/>
      <path id="Trazado_9112" data-name="Trazado 9112" d="M1224.808,541.7v22.07H1204.04v20.608h-22.07V563.772h-20.435V541.7h20.435V521.094h22.07V541.7Z" fill="#fff"/>
      <rect id="Rectángulo_6120" data-name="Rectángulo 6120" width="6.315" height="147.033" transform="translate(1081.458 479.107)" fill="#c52929"/>
      <rect id="Rectángulo_6121" data-name="Rectángulo 6121" width="6.302" height="147.033" transform="translate(1075.156 479.107)" fill="#ff5e5e"/>
      <rect id="Rectángulo_6122" data-name="Rectángulo 6122" width="6.315" height="147.033" transform="translate(1068.841 479.107)" fill="#c52929"/>
      <rect id="Rectángulo_6123" data-name="Rectángulo 6123" width="6.302" height="147.033" transform="translate(1062.539 479.107)" fill="#ff5e5e"/>
      <rect id="Rectángulo_6124" data-name="Rectángulo 6124" width="6.315" height="147.033" transform="translate(1056.223 479.107)" fill="#c52929"/>
      <rect id="Rectángulo_6125" data-name="Rectángulo 6125" width="6.302" height="147.033" transform="translate(1049.921 479.107)" fill="#ff5e5e"/>
      <rect id="Rectángulo_6126" data-name="Rectángulo 6126" width="6.315" height="147.033" transform="translate(1043.606 479.107)" fill="#c52929"/>
      <rect id="Rectángulo_6127" data-name="Rectángulo 6127" width="6.302" height="147.033" transform="translate(1037.304 479.107)" fill="#ff5e5e"/>
      <rect id="Rectángulo_6128" data-name="Rectángulo 6128" width="6.302" height="147.033" transform="translate(1031.002 479.107)" fill="#c52929"/>
      <path id="Trazado_9113" data-name="Trazado 9113" d="M1031,479.107l323.873,12.91v-12.91Z" fill="#00272c" opacity="0.31"/>
    </g>
  </g>
</svg>
