<svg xmlns="http://www.w3.org/2000/svg" width="193.333" height="193.334" viewBox="0 0 193.333 193.334">
  <g id="Grupo_9169" data-name="Grupo 9169" transform="translate(-106.825 -104.748)">
    <path id="Trazado_8954" data-name="Trazado 8954" d="M300.158,201.415a96.666,96.666,0,1,1-96.667-96.667,96.668,96.668,0,0,1,96.667,96.667Zm0,0" fill="#dbf2fd"/>
    <path id="Trazado_8955" data-name="Trazado 8955" d="M203.491,131.415a70,70,0,1,0,70,70,70,70,0,0,0-70-70Zm0,120a50,50,0,1,1,50-50,50,50,0,0,1-50,50Zm0,0" fill="#d8e2f3"/>
    <path id="Trazado_8956" data-name="Trazado 8956" d="M202.518,204.566l1.961-6.372,43.342,13.328-1.96,6.374Zm0,0" fill="#ff8086"/>
    <path id="Trazado_8957" data-name="Trazado 8957" d="M210.158,201.415a6.667,6.667,0,1,1-6.667-6.667,6.667,6.667,0,0,1,6.667,6.667Zm0,0" fill="#9196a9"/>
    <rect id="Rectángulo_6092" data-name="Rectángulo 6092" width="6.667" height="10" transform="translate(200.158 114.748)" fill="#354468"/>
    <path id="Trazado_8958" data-name="Trazado 8958" d="M177.841,118.565l6.44-1.725,2.587,9.658-6.438,1.727Zm0,0" fill="#354468"/>
    <path id="Trazado_8959" data-name="Trazado 8959" d="M157.271,128.024l5.775-3.333,5,8.661-5.775,3.333Zm0,0" fill="#354468"/>
    <path id="Trazado_8960" data-name="Trazado 8960" d="M139.852,142.489l4.714-4.713,7.072,7.071-4.714,4.714Zm0,0" fill="#354468"/>
    <path id="Trazado_8961" data-name="Trazado 8961" d="M126.768,160.969,130.1,155.2l8.66,5-3.333,5.773Zm0,0" fill="#354468"/>
    <path id="Trazado_8962" data-name="Trazado 8962" d="M118.916,182.2l1.725-6.439,9.66,2.589-1.727,6.439Zm0,0" fill="#354468"/>
    <rect id="Rectángulo_6093" data-name="Rectángulo 6093" width="10" height="6.667" transform="translate(116.825 198.082)" fill="#354468"/>
    <path id="Trazado_8963" data-name="Trazado 8963" d="M220.116,126.5l2.587-9.66,6.439,1.725-2.587,9.66Zm0,0" fill="#354468"/>
    <path id="Trazado_8964" data-name="Trazado 8964" d="M238.937,133.355l5-8.662,5.775,3.333-5,8.661Zm0,0" fill="#354468"/>
    <path id="Trazado_8965" data-name="Trazado 8965" d="M255.345,144.847l7.071-7.071,4.715,4.715-7.072,7.07Zm0,0" fill="#354468"/>
    <path id="Trazado_8966" data-name="Trazado 8966" d="M268.218,160.2l8.66-5,3.334,5.775-8.661,5Zm0,0" fill="#354468"/>
    <path id="Trazado_8967" data-name="Trazado 8967" d="M276.683,178.352l9.66-2.59,1.725,6.441-9.66,2.588Zm0,0" fill="#354468"/>
    <rect id="Rectángulo_6094" data-name="Rectángulo 6094" width="10" height="6.667" transform="translate(280.158 198.082)" fill="#354468"/>
    <path id="Trazado_8968" data-name="Trazado 8968" d="M276.68,224.475l1.727-6.439,9.658,2.589-1.727,6.439Zm0,0" fill="#354468"/>
    <path id="Trazado_8969" data-name="Trazado 8969" d="M203.491,134.748a66.666,66.666,0,0,0-66.666,66.667h13.333a53.334,53.334,0,0,1,53.333-53.333Zm0,0" fill="#a3dc42"/>
    <path id="Trazado_8970" data-name="Trazado 8970" d="M270.158,201.415a66.666,66.666,0,0,0-66.667-66.667v13.334a53.334,53.334,0,0,1,53.334,53.333Zm0,0" fill="#f3d55b"/>
    <path id="Trazado_8971" data-name="Trazado 8971" d="M256.825,201.415a53.086,53.086,0,0,1-7.137,26.667l11.548,6.666a66.342,66.342,0,0,0,8.922-33.333Zm0,0" fill="#ff8086"/>
    <path id="Trazado_8972" data-name="Trazado 8972" d="M268.216,242.634l3.334-5.773,8.66,5-3.333,5.775Zm0,0" fill="#354468"/>
    <path id="Trazado_8973" data-name="Trazado 8973" d="M126.411,274.589l41.413-67.28a6.667,6.667,0,0,1,11.354,0l41.393,67.28a6.665,6.665,0,0,1-5.677,10.159H132.088a6.666,6.666,0,0,1-5.677-10.159Zm0,0" fill="#ffbc05"/>
    <path id="Trazado_8974" data-name="Trazado 8974" d="M180.158,268.082a6.667,6.667,0,1,1-6.667-6.667,6.667,6.667,0,0,1,6.667,6.667Zm0,0" fill="#354468"/>
    <path id="Trazado_8975" data-name="Trazado 8975" d="M166.825,231.415a6.667,6.667,0,1,1,13.333,0l-2.787,16.714a3.934,3.934,0,0,1-7.76,0Zm0,0" fill="#354468"/>
  </g>
</svg>
