<svg xmlns="http://www.w3.org/2000/svg" width="180.633" height="200" viewBox="0 0 180.633 200">
  <g id="Grupo_9181" data-name="Grupo 9181" transform="translate(-392.225 -104.748)">
    <rect id="Rectángulo_6110" data-name="Rectángulo 6110" width="180.633" height="171.189" rx="10.147" transform="translate(392.225 117.559)" fill="#dbf2fd"/>
    <g id="Grupo_9180" data-name="Grupo 9180">
      <g id="Grupo_9179" data-name="Grupo 9179">
        <path id="Trazado_9094" data-name="Trazado 9094" d="M544.61,166.817a76.691,76.691,0,0,1-2.517,19.759,64.413,64.413,0,0,1-28.517,38.861c-13.206,7.933-10.346,17.242-10.346,17.242H461.852s2.861-9.309-10.345-17.242a64.415,64.415,0,0,1-28.518-38.861,76.736,76.736,0,0,1-2.516-19.759l9.586,3.206,11.1,3.691V158.2a1.726,1.726,0,0,1,1.725-1.725h6.655a1.724,1.724,0,0,0,1.723-1.931l-2.759-22.207a1.724,1.724,0,0,1,2.588-1.688l12.793,7.653a1.654,1.654,0,0,0,2.309-.516l5.036-7.518a1.726,1.726,0,0,1,2.413-.482l19.242,12.9-4.9-17.966-5.449-19.965a62.069,62.069,0,0,1,62.069,62.069Zm0,0" fill="#f0c419"/>
        <path id="Trazado_9095" data-name="Trazado 9095" d="M544.61,166.817a76.691,76.691,0,0,1-2.517,19.759,71.45,71.45,0,0,1-119.1,0,76.736,76.736,0,0,1-2.516-19.759l9.586,3.206,11.1,3.691V158.2a1.726,1.726,0,0,1,1.725-1.725h6.655a1.724,1.724,0,0,0,1.723-1.931l-2.759-22.207a1.724,1.724,0,0,1,2.588-1.688l12.793,7.653a1.654,1.654,0,0,0,2.309-.516l5.036-7.518a1.726,1.726,0,0,1,2.413-.482l19.242,12.9-4.9-17.966-5.449-19.965a62.069,62.069,0,0,1,62.069,62.069Zm0,0" fill="#f3d55b"/>
        <path id="Trazado_9096" data-name="Trazado 9096" d="M489.438,246.128a3.449,3.449,0,0,1-3.448-3.449V187.508h-6.9v55.171a3.448,3.448,0,1,1-6.9,0V187.508h-5.172a12.069,12.069,0,1,1,12.069-12.071v5.174h6.9v-5.174a12.069,12.069,0,1,1,12.069,12.071h-5.172v55.171a3.449,3.449,0,0,1-3.449,3.449Zm3.449-65.517h5.172a5.173,5.173,0,1,0-5.172-5.174Zm-25.863-10.346a5.173,5.173,0,0,0,0,10.346H472.2v-5.174a5.173,5.173,0,0,0-5.172-5.172Zm0,0" fill="#f29c1f"/>
        <path id="Trazado_9097" data-name="Trazado 9097" d="M530.163,163.541a3.627,3.627,0,0,1-1.552.379,3.447,3.447,0,0,1-3.07-1.931l-2.517-4.964h-2.551A6.9,6.9,0,0,1,514.3,153.2l-1.758-3.449-15.586-3.1a3.44,3.44,0,0,1-2.069-1.31l-2-2.656-4.9-17.966,11.552,15.381,14.31,2.86a6.907,6.907,0,0,1,4.794,3.691l1.757,3.448h2.621a6.9,6.9,0,0,1,6.173,3.793l2.482,5a3.449,3.449,0,0,1-1.516,4.655Zm0,0" fill="#f0c419"/>
        <path id="Trazado_9098" data-name="Trazado 9098" d="M449.646,196.094V201.3a3.449,3.449,0,0,1-6.9,0v-5.206l-6.621-4.416a6.893,6.893,0,0,1-2.724-7.895l2.069-6.208-5.414-7.552,11.1,3.691.931,1.31a3.446,3.446,0,0,1,.483,3.068l-2.621,7.864,6.62,4.413a6.9,6.9,0,0,1,3.071,5.725Zm0,0" fill="#f0c419"/>
        <path id="Trazado_9099" data-name="Trazado 9099" d="M458.4,242.679h48.275a6.9,6.9,0,1,1,0,13.793H458.4a6.9,6.9,0,1,1,0-13.793Zm0,0" fill="#bdc3c7"/>
        <path id="Trazado_9100" data-name="Trazado 9100" d="M458.4,256.472h48.275v24.139a10.343,10.343,0,0,1-10.344,10.343H468.748A10.343,10.343,0,0,1,458.4,280.611Zm0,0" fill="#95a5a5"/>
        <path id="Trazado_9101" data-name="Trazado 9101" d="M482.541,304.748a13.278,13.278,0,0,1-12.862-10.034l-.931-3.76h27.587l-.932,3.76a13.277,13.277,0,0,1-12.862,10.034Zm0,0" fill="#7f8c8d"/>
        <path id="Trazado_9102" data-name="Trazado 9102" d="M468.748,273.714H451.507a3.449,3.449,0,0,1,0-6.9h17.241a3.449,3.449,0,0,1,0,6.9Zm0,0" fill="#7f8c8d"/>
        <path id="Trazado_9103" data-name="Trazado 9103" d="M513.576,273.714H496.335a3.449,3.449,0,0,1,0-6.9h17.241a3.449,3.449,0,0,1,0,6.9Zm0,0" fill="#7f8c8d"/>
      </g>
      <path id="Trazado_9104" data-name="Trazado 9104" d="M399.241,276.588l22.18,4.621.272-7.788,26.366,9.1S420.1,317.089,399.241,276.588Z" fill="#f3d55b" fill-rule="evenodd"/>
      <path id="Trazado_9105" data-name="Trazado 9105" d="M521.587,295.117l18-13.16,3,3.313,12-1.247S546.787,298.133,521.587,295.117Z" fill="#f3d55b" fill-rule="evenodd"/>
      <path id="Trazado_9106" data-name="Trazado 9106" d="M533.347,256.57s.639-15.059,15.039-13.542,3.6,10,3.6,10H544.61L545.9,259.7Z" fill="#f3d55b" fill-rule="evenodd"/>
    </g>
  </g>
</svg>
