<svg xmlns="http://www.w3.org/2000/svg" xmlns:xlink="http://www.w3.org/1999/xlink" width="167.293" height="200" viewBox="0 0 167.293 200">
  <defs>
    <clipPath id="clip-path">
      <rect id="SVGID" width="167.292" height="200" transform="translate(415.182 396.146)" fill="none"/>
    </clipPath>
  </defs>
  <g id="Grupo_9177" data-name="Grupo 9177" transform="translate(-415.182 -396.146)">
    <path id="Trazado_9066" data-name="Trazado 9066" d="M454.366,518.934a9.551,9.551,0,0,1,9.074-6.434h32.171s0-12.868,12.869-12.868h9.651c12.869,0,28.955,45.04,28.955,45.04l35.389,35.388v16.086H550.3l-35.389-35.388c-28.954,0-28.954-28.955-28.954-28.955H463.44a9.651,9.651,0,0,1-9.652-9.651,8.954,8.954,0,0,1,.578-3.218Zm0,0" fill="#ffcdbe"/>
    <path id="Trazado_9067" data-name="Trazado 9067" d="M556.737,589.712l-35.388-35.389c-28.955,0-28.955-28.954-28.955-28.954h-22.52a9.651,9.651,0,0,1-9.651-9.652,9.063,9.063,0,0,1,.462-2.8,9.512,9.512,0,0,0-6.319,6.021,8.954,8.954,0,0,0-.578,3.218,9.651,9.651,0,0,0,9.652,9.651h22.52s0,28.955,28.954,28.955L550.3,596.146h32.172v-6.434Zm0,0" fill="#ffbeaa"/>
    <g id="Grupo_9174" data-name="Grupo 9174">
      <g id="Grupo_9173" data-name="Grupo 9173" clip-path="url(#clip-path)">
        <path id="Trazado_9068" data-name="Trazado 9068" d="M550.3,596.146H524.566l-19.3-16.086H476.308a9.651,9.651,0,1,0,0-19.3h-6.434a9.651,9.651,0,1,0,0-19.3H463.44a9.652,9.652,0,0,0,9.651-9.652H485.96s0,28.955,28.954,28.955Zm0,0" fill="#faa68e"/>
        <path id="Trazado_9069" data-name="Trazado 9069" d="M521.349,435.288a38.606,38.606,0,0,1-30.79,37.8l-7.816,13.673-7.817-13.673a38.606,38.606,0,1,1,46.423-37.8Zm-16.086,6.435V428.854H489.177V412.768H476.308v16.086H460.223v12.869h16.085v16.085h12.869V441.723Zm0,0" fill="#dbf2fd"/>
      </g>
    </g>
    <path id="Trazado_9070" data-name="Trazado 9070" d="M447.354,499.632H508.48c-12.869,0-12.869,12.868-12.869,12.868H463.44a9.551,9.551,0,0,0-9.074,6.434h-7.012Zm0,0" fill="#ffcdbe"/>
    <path id="Trazado_9071" data-name="Trazado 9071" d="M505.263,428.854v12.869H489.177v16.085H476.308V441.723H460.223V428.854h16.085V412.768h12.869v16.086Zm0,0" fill="#fc6a78"/>
    <path id="Trazado_9072" data-name="Trazado 9072" d="M483.128,563.589a9.651,9.651,0,0,1-6.82,16.471H463.44a9.651,9.651,0,1,1,0-19.3h12.868a9.619,9.619,0,0,1,6.82,2.831Zm0,0" fill="#ffcdbe"/>
    <path id="Trazado_9073" data-name="Trazado 9073" d="M476.694,544.286a9.652,9.652,0,0,1-6.82,16.472H457.005a9.651,9.651,0,0,1,0-19.3h12.869a9.62,9.62,0,0,1,6.82,2.831Zm0,0" fill="#ffcdbe"/>
    <path id="Trazado_9074" data-name="Trazado 9074" d="M463.44,531.8h9.651a9.652,9.652,0,0,1-9.651,9.652H450.571a9.652,9.652,0,0,1,0-19.3h3.217a9.651,9.651,0,0,0,9.652,9.651Zm0,0" fill="#ffcdbe"/>
    <path id="Trazado_9075" data-name="Trazado 9075" d="M476.308,573.626H463.44a9.533,9.533,0,0,1-9.059-6.434,9.623,9.623,0,0,0,9.059,12.868h12.868a9.651,9.651,0,0,0,9.652-9.651,9.446,9.446,0,0,0-.593-3.217,9.607,9.607,0,0,1-9.059,6.434Zm0,0" fill="#faa68e"/>
    <path id="Trazado_9076" data-name="Trazado 9076" d="M469.874,554.323H457.005a9.535,9.535,0,0,1-9.059-6.434,9.624,9.624,0,0,0,9.059,12.869h12.869a9.653,9.653,0,0,0,9.652-9.652,9.446,9.446,0,0,0-.593-3.217,9.607,9.607,0,0,1-9.059,6.434Zm0,0" fill="#faa68e"/>
    <path id="Trazado_9077" data-name="Trazado 9077" d="M463.44,535.02H450.571a9.534,9.534,0,0,1-9.059-6.434,9.624,9.624,0,0,0,9.059,12.869H463.44a9.652,9.652,0,0,0,9.651-9.652h-2.5a9.6,9.6,0,0,1-7.155,3.217Zm0,0" fill="#faa68e"/>
    <rect id="Rectángulo_6099" data-name="Rectángulo 6099" width="9.651" height="19.303" transform="translate(437.702 499.632)" fill="#bae6fd"/>
    <rect id="Rectángulo_6100" data-name="Rectángulo 6100" width="9.651" height="19.303" transform="translate(428.051 499.632)" fill="#e7f7ff"/>
    <rect id="Rectángulo_6101" data-name="Rectángulo 6101" width="9.651" height="6.434" transform="translate(437.702 512.5)" fill="#9ed4f0"/>
    <rect id="Rectángulo_6102" data-name="Rectángulo 6102" width="9.651" height="6.434" transform="translate(428.051 512.5)" fill="#bae6fd"/>
    <path id="Trazado_9078" data-name="Trazado 9078" d="M434.485,547.889a9.651,9.651,0,0,1-19.3,0c0-5.341,9.652-16.086,9.652-16.086s9.651,10.745,9.651,16.086Zm0,0" fill="#fc6a78"/>
    <path id="Trazado_9079" data-name="Trazado 9079" d="M424.834,551.106a9.618,9.618,0,0,1-8.969-6.135,8.379,8.379,0,0,0-.683,2.918,9.651,9.651,0,0,0,19.3,0,8.355,8.355,0,0,0-.682-2.918,9.618,9.618,0,0,1-8.969,6.135Zm0,0" fill="#d64351"/>
    <path id="Trazado_9080" data-name="Trazado 9080" d="M428.051,499.632v19.3h-3.217a9.651,9.651,0,1,1,0-19.3Zm0,0" fill="#ffcdbe"/>
    <g id="Grupo_9176" data-name="Grupo 9176">
      <g id="Grupo_9175" data-name="Grupo 9175" clip-path="url(#clip-path)">
        <path id="Trazado_9081" data-name="Trazado 9081" d="M497.167,499.738a10.986,10.986,0,0,1-9.81,6.328H463.44a9.551,9.551,0,0,0-9.074,6.434h-7.012v6.434h7.012a9.551,9.551,0,0,1,9.074-6.434h32.171s0-12.868,12.869-12.868H497.22Zm0,0" fill="#faa68e"/>
        <path id="Trazado_9082" data-name="Trazado 9082" d="M418.014,509.668a9.62,9.62,0,0,1-2.239-3.6,9.623,9.623,0,0,0,9.059,12.868h3.217V512.5h-3.217a9.622,9.622,0,0,1-6.82-2.832Zm0,0" fill="#faa68e"/>
      </g>
    </g>
    <path id="Trazado_9083" data-name="Trazado 9083" d="M419.091,552.367a.951.951,0,0,0,.538.322c.414.049.733-.339.966-.689a9.657,9.657,0,0,0,1.4-2.976c.39-1.669-.555-5.073-2.75-3.217a5.676,5.676,0,0,0-.155,6.56Zm0,0" fill="#fc8f99"/>
  </g>
</svg>
