<svg xmlns="http://www.w3.org/2000/svg" width="313.6" height="313.299" viewBox="0 0 313.6 313.299">
  <g id="Grupo_9649" data-name="Grupo 9649" transform="translate(-159.558 -1415.722)">
    <path id="Trazado_9298" data-name="Trazado 9298" d="M424.687,1605.214H321.031v-35.962a4.732,4.732,0,1,0-9.465,0v35.962H208.028a11.593,11.593,0,0,0-11.58,11.58v54.031a4.732,4.732,0,0,0,9.465,0v-54.031a2.118,2.118,0,0,1,2.115-2.115H311.566v35.962a4.732,4.732,0,0,0,9.465,0v-35.962H424.684a2.118,2.118,0,0,1,2.118,2.115v54.031a4.732,4.732,0,0,0,9.465,0v-54.031a11.593,11.593,0,0,0-11.58-11.58Zm0,0" fill="#dae4ea"/>
    <path id="Trazado_9299" data-name="Trazado 9299" d="M435.629,1687.4a42.756,42.756,0,0,0-21.08-36.869,2.282,2.282,0,0,0-2.211-.057,41.612,41.612,0,0,0,0,73.85,2.29,2.29,0,0,0,2.211-.06,42.754,42.754,0,0,0,21.08-36.864Zm0,0" fill="#ff8086"/>
    <path id="Trazado_9300" data-name="Trazado 9300" d="M431.533,1645.776a41.653,41.653,0,0,0-12.617,1.952l.017.006a41.408,41.408,0,0,0-6.771,2.84,41.621,41.621,0,0,1,0,73.649,41.143,41.143,0,0,0,6.771,2.84l-.017.006a41.626,41.626,0,1,0,12.617-81.293Zm0,0" fill="#fb636f"/>
    <path id="Trazado_9301" data-name="Trazado 9301" d="M435.505,1690.664a24.639,24.639,0,0,0-3.969-.323c-13.81,0-25.026,11.491-25.24,25.745v4.412a41.89,41.89,0,0,0,7.153,4.4,42.789,42.789,0,0,0,22.056-34.23Zm0,0" fill="#fbe77b"/>
    <path id="Trazado_9302" data-name="Trazado 9302" d="M434.27,1690.5a41.615,41.615,0,0,1-22.108,33.725,41.252,41.252,0,0,0,6.771,2.84l-.017.006a41.654,41.654,0,0,0,37.858-6.578v-4.4c-.2-13.3-9.979-24.188-22.5-25.588Zm0,0" fill="#ffd064"/>
    <path id="Trazado_9303" data-name="Trazado 9303" d="M431.134,1668.3a14.043,14.043,0,0,0,.4,28.051,13.244,13.244,0,0,0,3.241-.4,43.046,43.046,0,0,0,.855-8.545,42.54,42.54,0,0,0-4.495-19.1Zm0,0" fill="#ffece3"/>
    <path id="Trazado_9304" data-name="Trazado 9304" d="M431.533,1668.291a13.382,13.382,0,0,0-1.729.119,41.748,41.748,0,0,1,3.647,27.795,14.066,14.066,0,0,0-1.918-27.914Zm0,0" fill="#ffddce"/>
    <path id="Trazado_9305" data-name="Trazado 9305" d="M361.46,1498.374a84.056,84.056,0,0,0-55.875-79.185,2.09,2.09,0,0,0-2.176.479,13.241,13.241,0,0,0-3.86,9.36,11.877,11.877,0,0,1-20.276,8.4,13.282,13.282,0,0,0-18.784,0l-5.04,5.04a13.286,13.286,0,0,0,0,18.787A11.876,11.876,0,0,1,247,1481.527a12.931,12.931,0,0,0-13.232,12.853v7.56a13.281,13.281,0,0,0,13.281,13.281,11.878,11.878,0,0,1,8.4,20.276,13.282,13.282,0,0,0,0,18.784l5.04,5.04a13.282,13.282,0,0,0,18.784,0,11.878,11.878,0,0,1,20.276,8.4,13.244,13.244,0,0,0,3.691,9.188,2.33,2.33,0,0,0,2.459.612,84.054,84.054,0,0,0,55.761-79.146Zm-79.322-2.227a34.331,34.331,0,1,1,36.488,36.489,34.407,34.407,0,0,1-36.488-36.489Zm0,0" fill="#8c9ba6"/>
    <path id="Trazado_9306" data-name="Trazado 9306" d="M385.752,1481.5a11.878,11.878,0,0,1-8.447-20.276,13.284,13.284,0,0,0,0-18.784l-5.347-5.343a12.93,12.93,0,0,0-18.445.271A11.878,11.878,0,0,1,333.2,1429a13.28,13.28,0,0,0-13.281-13.279H312.8a13.239,13.239,0,0,0-9.555,4.067,82.651,82.651,0,0,1,0,157.122,13.236,13.236,0,0,0,9.552,4.064h7.129a13.281,13.281,0,0,0,13.281-13.281,11.878,11.878,0,0,1,20.276-8.4,13.281,13.281,0,0,0,18.783,0l5.041-5.041a13.283,13.283,0,0,0,0-18.783,11.878,11.878,0,0,1,8.447-20.276,12.932,12.932,0,0,0,13.236-12.853v-7.988a12.936,12.936,0,0,0-13.236-12.853Zm0,0" fill="#7c8b96"/>
    <path id="Trazado_9307" data-name="Trazado 9307" d="M320.451,1687.4a42.754,42.754,0,0,0-21.078-36.869,2.28,2.28,0,0,0-2.21-.057,41.611,41.611,0,0,0,0,73.85,2.288,2.288,0,0,0,2.21-.06,42.752,42.752,0,0,0,21.078-36.864Zm0,0" fill="#ff8086"/>
    <path id="Trazado_9308" data-name="Trazado 9308" d="M316.358,1645.776a41.662,41.662,0,0,0-12.62,1.952l.015.006a41.391,41.391,0,0,0-6.766,2.84,41.622,41.622,0,0,1,0,73.649,41.125,41.125,0,0,0,6.766,2.84l-.015.006a41.626,41.626,0,1,0,12.62-81.293Zm0,0" fill="#fb636f"/>
    <path id="Trazado_9309" data-name="Trazado 9309" d="M320.329,1690.664a24.692,24.692,0,0,0-3.971-.323c-13.807,0-25.027,11.491-25.237,25.745v4.412a41.817,41.817,0,0,0,7.149,4.4,42.79,42.79,0,0,0,22.059-34.23Zm0,0" fill="#fbe77b"/>
    <path id="Trazado_9310" data-name="Trazado 9310" d="M319.1,1690.5a41.633,41.633,0,0,1-22.108,33.725,41.125,41.125,0,0,0,6.766,2.84l-.015.006a41.65,41.65,0,0,0,37.856-6.578v-4.4c-.2-13.3-9.974-24.188-22.5-25.588Zm0,0" fill="#ffd064"/>
    <path id="Trazado_9311" data-name="Trazado 9311" d="M315.959,1668.3a14.043,14.043,0,0,0,.4,28.051,13.208,13.208,0,0,0,3.238-.4,42.944,42.944,0,0,0-3.637-27.648Zm0,0" fill="#ffece3"/>
    <path id="Trazado_9312" data-name="Trazado 9312" d="M316.358,1668.291a13.366,13.366,0,0,0-1.732.119,41.737,41.737,0,0,1,3.649,27.795,14.066,14.066,0,0,0-1.917-27.914Zm0,0" fill="#ffddce"/>
    <path id="Trazado_9313" data-name="Trazado 9313" d="M205.275,1687.4a42.758,42.758,0,0,0-21.08-36.869,2.282,2.282,0,0,0-2.211-.057,41.612,41.612,0,0,0,0,73.85,2.29,2.29,0,0,0,2.211-.06,42.756,42.756,0,0,0,21.08-36.864Zm0,0" fill="#ff8086"/>
    <path id="Trazado_9314" data-name="Trazado 9314" d="M201.182,1645.776a41.658,41.658,0,0,0-12.62,1.952l.016.006a41.459,41.459,0,0,0-6.769,2.84,41.62,41.62,0,0,1,0,73.649,41.194,41.194,0,0,0,6.769,2.84l-.016.006a41.626,41.626,0,1,0,12.62-81.293Zm0,0" fill="#fb636f"/>
    <path id="Trazado_9315" data-name="Trazado 9315" d="M205.151,1690.664a24.639,24.639,0,0,0-3.969-.323c-13.809,0-25.026,11.491-25.24,25.745v4.412a41.881,41.881,0,0,0,7.152,4.4,42.79,42.79,0,0,0,22.057-34.23Zm0,0" fill="#fbe77b"/>
    <path id="Trazado_9316" data-name="Trazado 9316" d="M203.916,1690.5a41.616,41.616,0,0,1-22.107,33.725,41.194,41.194,0,0,0,6.769,2.84l-.016.006a41.652,41.652,0,0,0,37.857-6.578v-4.4c-.2-13.3-9.979-24.188-22.5-25.588Zm0,0" fill="#ffd064"/>
    <path id="Trazado_9317" data-name="Trazado 9317" d="M200.781,1668.3a14.043,14.043,0,0,0,.4,28.051,13.25,13.25,0,0,0,3.241-.4,43.122,43.122,0,0,0,.852-8.545,42.563,42.563,0,0,0-4.491-19.1Zm0,0" fill="#ffece3"/>
    <path id="Trazado_9318" data-name="Trazado 9318" d="M201.182,1668.291a13.391,13.391,0,0,0-1.732.119A41.678,41.678,0,0,1,203.1,1696.2a14.066,14.066,0,0,0-1.914-27.914Zm0,0" fill="#ffddce"/>
  </g>
</svg>
