<svg xmlns="http://www.w3.org/2000/svg" width="248.897" height="248.897" viewBox="0 0 248.897 248.897">
  <g id="Grupo_9658" data-name="Grupo 9658" transform="translate(-996.912 -2187.035)">
    <circle id="Elipse_156" data-name="Elipse 156" cx="124.448" cy="124.448" r="124.448" transform="translate(996.912 2187.035)" fill="#b2ddfb"/>
    <g id="Grupo_9656" data-name="Grupo 9656">
      <path id="Trazado_9362" data-name="Trazado 9362" d="M1045.923,2242.548h110.532a6.488,6.488,0,0,1,6.5,6.5v91.027a6.489,6.489,0,0,1-6.5,6.5H1045.923a6.489,6.489,0,0,1-6.5-6.5V2249.05a6.488,6.488,0,0,1,6.5-6.5Zm0,0" fill="#b9c9c9"/>
      <path id="Trazado_9363" data-name="Trazado 9363" d="M1104.44,2320.571a6.5,6.5,0,1,1-6.5-6.5,6.5,6.5,0,0,1,6.5,6.5Zm0,0" fill="#d1dbdb"/>
      <path id="Trazado_9364" data-name="Trazado 9364" d="M1104.44,2294.564a6.5,6.5,0,1,1-6.5-6.5,6.5,6.5,0,0,1,6.5,6.5Zm0,0" fill="#d1dbdb"/>
      <path id="Trazado_9365" data-name="Trazado 9365" d="M1084.934,2281.56a6.5,6.5,0,1,1-6.5-6.5,6.5,6.5,0,0,1,6.5,6.5Zm0,0" fill="#ff9db8"/>
      <path id="Trazado_9366" data-name="Trazado 9366" d="M1084.934,2307.567a6.5,6.5,0,1,1-6.5-6.5,6.5,6.5,0,0,1,6.5,6.5Zm0,0" fill="#ff9db8"/>
      <path id="Trazado_9367" data-name="Trazado 9367" d="M1104.44,2268.556a6.5,6.5,0,1,1-6.5-6.5,6.5,6.5,0,0,1,6.5,6.5Zm0,0" fill="#d1dbdb"/>
      <path id="Trazado_9368" data-name="Trazado 9368" d="M1123.946,2281.56a6.5,6.5,0,1,1-6.5-6.5,6.5,6.5,0,0,1,6.5,6.5Zm0,0" fill="#d1dbdb"/>
      <path id="Trazado_9369" data-name="Trazado 9369" d="M1123.946,2255.552a6.5,6.5,0,1,1-6.5-6.5,6.5,6.5,0,0,1,6.5,6.5Zm0,0" fill="#d1dbdb"/>
      <path id="Trazado_9370" data-name="Trazado 9370" d="M1084.934,2255.552a6.5,6.5,0,1,1-6.5-6.5,6.5,6.5,0,0,1,6.5,6.5Zm0,0" fill="#ff9db8"/>
      <path id="Trazado_9371" data-name="Trazado 9371" d="M1123.946,2333.575a6.5,6.5,0,1,1-6.5-6.5,6.5,6.5,0,0,1,6.5,6.5Zm0,0" fill="#d1dbdb"/>
      <path id="Trazado_9372" data-name="Trazado 9372" d="M1084.934,2333.575a6.5,6.5,0,1,1-6.5-6.5,6.5,6.5,0,0,1,6.5,6.5Zm0,0" fill="#d1dbdb"/>
      <path id="Trazado_9373" data-name="Trazado 9373" d="M1123.946,2307.567a6.5,6.5,0,1,1-6.5-6.5,6.5,6.5,0,0,1,6.5,6.5Zm0,0" fill="#d1dbdb"/>
      <path id="Trazado_9374" data-name="Trazado 9374" d="M1156.455,2281.56a6.5,6.5,0,1,1-6.5-6.5,6.5,6.5,0,0,1,6.5,6.5Zm0,0" fill="#d1dbdb"/>
      <path id="Trazado_9375" data-name="Trazado 9375" d="M1156.455,2255.552a6.5,6.5,0,1,1-6.5-6.5,6.5,6.5,0,0,1,6.5,6.5Zm0,0" fill="#d1dbdb"/>
      <path id="Trazado_9376" data-name="Trazado 9376" d="M1156.455,2333.575a6.5,6.5,0,1,1-6.5-6.5,6.5,6.5,0,0,1,6.5,6.5Zm0,0" fill="#d1dbdb"/>
      <path id="Trazado_9377" data-name="Trazado 9377" d="M1156.455,2307.567a6.5,6.5,0,1,1-6.5-6.5,6.5,6.5,0,0,1,6.5,6.5Zm0,0" fill="#d1dbdb"/>
      <path id="Trazado_9378" data-name="Trazado 9378" d="M1143.451,2320.571a6.5,6.5,0,1,1-6.5-6.5,6.5,6.5,0,0,1,6.5,6.5Zm0,0" fill="#d1dbdb"/>
      <path id="Trazado_9379" data-name="Trazado 9379" d="M1143.451,2294.564a6.5,6.5,0,1,1-6.5-6.5,6.5,6.5,0,0,1,6.5,6.5Zm0,0" fill="#d1dbdb"/>
      <path id="Trazado_9380" data-name="Trazado 9380" d="M1143.451,2268.556a6.5,6.5,0,1,1-6.5-6.5,6.5,6.5,0,0,1,6.5,6.5Zm0,0" fill="#d1dbdb"/>
      <path id="Trazado_9381" data-name="Trazado 9381" d="M1097.938,2340.077a6.5,6.5,0,0,0-6.5,6.5h13a6.5,6.5,0,0,0-6.5-6.5Zm0,0" fill="#d1dbdb"/>
      <path id="Trazado_9382" data-name="Trazado 9382" d="M1136.949,2340.077a6.5,6.5,0,0,0-6.5,6.5h13a6.5,6.5,0,0,0-6.5-6.5Zm0,0" fill="#d1dbdb"/>
      <path id="Trazado_9383" data-name="Trazado 9383" d="M1097.938,2249.05a6.5,6.5,0,0,0,6.5-6.5h-13a6.5,6.5,0,0,0,6.5,6.5Zm0,0" fill="#d1dbdb"/>
      <path id="Trazado_9384" data-name="Trazado 9384" d="M1136.949,2249.05a6.5,6.5,0,0,0,6.5-6.5h-13a6.5,6.5,0,0,0,6.5,6.5Zm0,0" fill="#d1dbdb"/>
      <path id="Trazado_9385" data-name="Trazado 9385" d="M1045.923,2197.035a39.055,39.055,0,0,0-39.011,39.012v71.52a6.5,6.5,0,0,0,6.5,6.5h65.019a6.5,6.5,0,0,0,6.5-6.5v-71.52a39.055,39.055,0,0,0-39.011-39.012Zm0,0" fill="#8ba5a5"/>
      <path id="Trazado_9386" data-name="Trazado 9386" d="M1084.934,2307.567a39.011,39.011,0,1,1-39.011-39.011,39.011,39.011,0,0,1,39.011,39.011Zm0,0" fill="#a2b7b7"/>
      <path id="Trazado_9387" data-name="Trazado 9387" d="M1065.429,2307.567a19.505,19.505,0,1,1-5.713-13.792,19.507,19.507,0,0,1,5.713,13.792Zm0,0" fill="#687c7c"/>
    </g>
    <g id="Grupo_9657" data-name="Grupo 9657">
      <path id="Trazado_9388" data-name="Trazado 9388" d="M1222.627,2423.577a2.356,2.356,0,0,1-2.356,2.355H1207.06a2.356,2.356,0,0,1-2.355-2.355c0-16.945.258-36.485.262-36.679a2.357,2.357,0,0,1,2.355-2.325h12.687a2.357,2.357,0,0,1,2.356,2.325c0,.194.262,19.734.262,36.679Zm0,0" fill="#f74b4a"/>
      <path id="Trazado_9389" data-name="Trazado 9389" d="M1222.627,2423.577a2.356,2.356,0,0,1-2.356,2.355h-6.281c.43-18.094.126-34.8-.035-41.359h6.054a2.357,2.357,0,0,1,2.356,2.325c0,.194.262,19.734.262,36.679Zm0,0" fill="#d1403f"/>
      <path id="Trazado_9390" data-name="Trazado 9390" d="M1106.1,2423.577a2.356,2.356,0,0,1-2.355,2.355h-13.211a2.356,2.356,0,0,1-2.356-2.355c0-16.945.259-36.485.262-36.679a2.357,2.357,0,0,1,2.356-2.325h12.687a2.357,2.357,0,0,1,2.355,2.325c0,.194.262,19.734.262,36.679Zm0,0" fill="#f74b4a"/>
      <path id="Trazado_9391" data-name="Trazado 9391" d="M1106.1,2423.577a2.356,2.356,0,0,1-2.355,2.355h-6.282c.43-18.094.126-34.8-.034-41.359h6.054a2.357,2.357,0,0,1,2.355,2.325c0,.194.262,19.734.262,36.679Zm0,0" fill="#d1403f"/>
      <path id="Trazado_9392" data-name="Trazado 9392" d="M1235.809,2376.287a71.433,71.433,0,0,1-.964,10.969,2.353,2.353,0,0,1-2.293,1.948c-.069,0-2.922.035-7.78.078-7.71.076-146.332-.076-146.517-.078a2.353,2.353,0,0,1-2.293-1.948,62.872,62.872,0,0,1,0-21.935,2.356,2.356,0,0,1,2.293-1.95c.223,0,140.88-.133,146.513-.079,4.838.046,7.684.076,7.784.079a2.356,2.356,0,0,1,2.293,1.95,71.4,71.4,0,0,1,.964,10.966Zm0,0" fill="#ff5e5e"/>
      <path id="Trazado_9393" data-name="Trazado 9393" d="M1235.809,2376.287a71.433,71.433,0,0,1-.964,10.969,2.353,2.353,0,0,1-2.293,1.948c-.069,0-2.922.035-7.78.078a153.878,153.878,0,0,0,0-25.99c4.838.046,7.684.076,7.784.079a2.356,2.356,0,0,1,2.293,1.95,71.4,71.4,0,0,1,.964,10.966Zm0,0" fill="#ff3f3a"/>
      <rect id="Rect치ngulo_6237" data-name="Rect치ngulo 6237" width="17.519" height="5.369" transform="translate(1088.412 2389.303)" fill="#d1403f"/>
      <rect id="Rect치ngulo_6238" data-name="Rect치ngulo 6238" width="17.519" height="5.369" transform="translate(1204.906 2389.303)" fill="#d1403f"/>
    </g>
  </g>
</svg>
