<svg xmlns="http://www.w3.org/2000/svg" width="216.21" height="199.998" viewBox="0 0 216.21 199.998">
  <g id="Grupo_9171" data-name="Grupo 9171" transform="translate(-992.664 -104.748)">
    <path id="Trazado_9004" data-name="Trazado 9004" d="M1108.894,135.407,1179.885,261.7a12.449,12.449,0,0,1-10.852,18.549H1031.186a12.449,12.449,0,0,1-11-18.274l66.855-126.291A12.449,12.449,0,0,1,1108.894,135.407Z" fill="#edf6ff" fill-rule="evenodd"/>
    <path id="Trazado_9005" data-name="Trazado 9005" d="M1100.11,104.748a50.053,50.053,0,1,1-50.053,50.054,50.054,50.054,0,0,1,50.053-50.054Z" fill="#c0e54c"/>
    <path id="Trazado_9006" data-name="Trazado 9006" d="M1118.484,142.7h-36.921V140.74a18.461,18.461,0,0,1,18.461-18.461h0a18.46,18.46,0,0,1,18.46,18.461V142.7Z" fill="#ffd033"/>
    <path id="Trazado_9007" data-name="Trazado 9007" d="M1100.024,122.279h0a18.581,18.581,0,0,0-2.994.245,18.463,18.463,0,0,1,15.466,18.215V142.7h5.987v-1.963a18.459,18.459,0,0,0-18.459-18.46Z" fill="#fdc100"/>
    <path id="Trazado_9008" data-name="Trazado 9008" d="M1125.488,180.127l-25.376-8.136-25.377,8.136c-4.678,1.5-8.1,5.845-8.976,11.076a50.047,50.047,0,0,0,68.7,0c-.874-5.231-4.3-9.576-8.976-11.076Z" fill="#5f5aa4"/>
    <path id="Trazado_9009" data-name="Trazado 9009" d="M1125.488,180.127l-25.376-8.136-3.67,1.177,21.708,6.959q.292.095.578.2c6.967,2.642,7.77,12.2,1.549,16.3a49.765,49.765,0,0,1-23.835,8.1q1.818.132,3.67.133a49.877,49.877,0,0,0,34.352-13.652c-.874-5.231-4.3-9.576-8.976-11.076Z" fill="#5855a1"/>
    <path id="Trazado_9010" data-name="Trazado 9010" d="M1100.5,183.825h-1.3a9.115,9.115,0,0,1-9.115-9.115v-8.526h19.533v8.526a9.115,9.115,0,0,1-9.115,9.115Z" fill="#ffcdbe"/>
    <path id="Trazado_9011" data-name="Trazado 9011" d="M1090.081,172.494a15.768,15.768,0,0,0,9.943,3.513h0a15.764,15.764,0,0,0,9.59-3.236v-6.587h-19.533v6.31Z" fill="#faa68e"/>
    <path id="Trazado_9012" data-name="Trazado 9012" d="M1100.024,171.991h0a15.837,15.837,0,0,1-15.838-15.837V142.642h31.675v13.512a15.836,15.836,0,0,1-15.837,15.837Z" fill="#ffcdbe"/>
    <path id="Trazado_9013" data-name="Trazado 9013" d="M1084.186,142.642v8.868H1096a13.511,13.511,0,0,1,13.512,13.511h0a15.835,15.835,0,0,1-.573,4.22,15.821,15.821,0,0,0,6.918-13.088V142.642Z" fill="#ffbeaa"/>
    <path id="Trazado_9014" data-name="Trazado 9014" d="M1119.3,145.928H1080.63a3.33,3.33,0,0,1,0-6.571H1119.3a3.33,3.33,0,0,1,0,6.571Z" fill="#ef792d"/>
    <path id="Trazado_9015" data-name="Trazado 9015" d="M1119.3,139.357h-8.763a3.33,3.33,0,0,1,0,6.571h8.763a3.33,3.33,0,0,0,0-6.571Z" fill="#eb5f29"/>
    <path id="Trazado_9016" data-name="Trazado 9016" d="M1099.848,145.928a3.286,3.286,0,0,1-3.286-3.286V132.566a3.286,3.286,0,0,1,6.572,0v10.076a3.286,3.286,0,0,1-3.286,3.286Z" fill="#ef792d"/>
    <path id="Trazado_9017" data-name="Trazado 9017" d="M1042.717,204.636a50.054,50.054,0,1,1-50.053,50.053,50.054,50.054,0,0,1,50.053-50.053Z" fill="#ff8086"/>
    <path id="Trazado_9018" data-name="Trazado 9018" d="M1061.091,242.592h-36.92V240.63a18.46,18.46,0,0,1,18.46-18.46h0a18.46,18.46,0,0,1,18.46,18.46v1.962Z" fill="#ffd033"/>
    <path id="Trazado_9019" data-name="Trazado 9019" d="M1042.631,222.17h0a18.583,18.583,0,0,0-2.994.245A18.463,18.463,0,0,1,1055.1,240.63v1.962h5.988V240.63a18.46,18.46,0,0,0-18.46-18.46Z" fill="#fdc100"/>
    <path id="Trazado_9020" data-name="Trazado 9020" d="M1068.095,280.018l-25.377-8.136-25.376,8.136c-4.678,1.5-8.1,5.844-8.976,11.076a50.047,50.047,0,0,0,68.705,0c-.874-5.232-4.3-9.576-8.976-11.076Z" fill="#5f5aa4"/>
    <path id="Trazado_9021" data-name="Trazado 9021" d="M1068.095,280.018l-25.377-8.136-3.669,1.176,21.708,6.96c.2.062.387.13.578.2,6.967,2.642,7.77,12.2,1.548,16.3a49.766,49.766,0,0,1-23.834,8.1q1.818.132,3.669.133a49.884,49.884,0,0,0,34.353-13.652c-.874-5.232-4.3-9.576-8.976-11.076Z" fill="#5855a1"/>
    <path id="Trazado_9022" data-name="Trazado 9022" d="M1043.106,283.716h-1.3a9.115,9.115,0,0,1-9.115-9.115v-8.527h19.532V274.6a9.115,9.115,0,0,1-9.115,9.115Z" fill="#ffcdbe"/>
    <path id="Trazado_9023" data-name="Trazado 9023" d="M1032.688,272.385a15.766,15.766,0,0,0,9.942,3.513h0a15.767,15.767,0,0,0,9.591-3.237v-6.587h-19.533v6.311Z" fill="#faa68e"/>
    <path id="Trazado_9024" data-name="Trazado 9024" d="M1042.631,271.882h0a15.838,15.838,0,0,1-15.838-15.838V242.533h31.675v13.511a15.837,15.837,0,0,1-15.837,15.838Z" fill="#ffcdbe"/>
    <path id="Trazado_9025" data-name="Trazado 9025" d="M1026.793,242.533V251.4h11.818a13.512,13.512,0,0,1,13.512,13.511h0a15.875,15.875,0,0,1-.573,4.22,15.822,15.822,0,0,0,6.918-13.087V242.532h-31.675Z" fill="#ffbeaa"/>
    <path id="Trazado_9026" data-name="Trazado 9026" d="M1061.909,245.819h-38.672a3.33,3.33,0,0,1,0-6.572h38.672a3.33,3.33,0,0,1,0,6.572Z" fill="#ef792d"/>
    <path id="Trazado_9027" data-name="Trazado 9027" d="M1061.909,239.247h-8.763a3.33,3.33,0,0,1,0,6.572h8.763a3.33,3.33,0,0,0,0-6.572Z" fill="#eb5f29"/>
    <path id="Trazado_9028" data-name="Trazado 9028" d="M1042.455,245.819a3.286,3.286,0,0,1-3.286-3.286V232.456a3.286,3.286,0,0,1,6.572,0v10.077a3.286,3.286,0,0,1-3.286,3.286Z" fill="#ef792d"/>
    <path id="Trazado_9029" data-name="Trazado 9029" d="M1158.821,204.636a50.054,50.054,0,1,1-50.054,50.053,50.054,50.054,0,0,1,50.054-50.053Z" fill="#4398d1"/>
    <path id="Trazado_9030" data-name="Trazado 9030" d="M1177.192,242.592h-36.921V240.63a18.46,18.46,0,0,1,18.461-18.46h0a18.46,18.46,0,0,1,18.46,18.46v1.962Z" fill="#ffd033"/>
    <path id="Trazado_9031" data-name="Trazado 9031" d="M1158.732,222.17h0a18.581,18.581,0,0,0-2.994.245A18.463,18.463,0,0,1,1171.2,240.63v1.962h5.987V240.63a18.458,18.458,0,0,0-18.459-18.46Z" fill="#fdc100"/>
    <path id="Trazado_9032" data-name="Trazado 9032" d="M1184.2,280.018l-25.377-8.136-25.376,8.136c-4.679,1.5-8.1,5.844-8.977,11.076a50.047,50.047,0,0,0,68.705,0c-.873-5.232-4.3-9.576-8.975-11.076Z" fill="#5f5aa4"/>
    <path id="Trazado_9033" data-name="Trazado 9033" d="M1184.2,280.018l-25.377-8.136-3.669,1.176,21.708,6.96c.195.062.387.13.578.2,6.967,2.642,7.77,12.2,1.548,16.3a49.766,49.766,0,0,1-23.834,8.1q1.818.132,3.669.133a49.882,49.882,0,0,0,34.353-13.652c-.874-5.232-4.3-9.576-8.976-11.076Z" fill="#5855a1"/>
    <path id="Trazado_9034" data-name="Trazado 9034" d="M1159.207,283.716h-1.3a9.115,9.115,0,0,1-9.115-9.115v-8.527h19.533V274.6a9.115,9.115,0,0,1-9.115,9.115Z" fill="#ffcdbe"/>
    <path id="Trazado_9035" data-name="Trazado 9035" d="M1148.789,272.385a15.766,15.766,0,0,0,9.942,3.513h0a15.768,15.768,0,0,0,9.591-3.237v-6.587h-19.533v6.311Z" fill="#faa68e"/>
    <path id="Trazado_9036" data-name="Trazado 9036" d="M1158.732,271.882h0a15.838,15.838,0,0,1-15.838-15.838V242.533h31.675v13.511a15.838,15.838,0,0,1-15.837,15.838Z" fill="#ffcdbe"/>
    <path id="Trazado_9037" data-name="Trazado 9037" d="M1142.894,242.533V251.4h11.818a13.512,13.512,0,0,1,13.512,13.511h0a15.875,15.875,0,0,1-.573,4.22,15.819,15.819,0,0,0,6.918-13.087V242.532h-31.675Z" fill="#ffbeaa"/>
    <path id="Trazado_9038" data-name="Trazado 9038" d="M1178.009,245.819h-38.672a3.33,3.33,0,0,1,0-6.572h38.672a3.33,3.33,0,0,1,0,6.572Z" fill="#ef792d"/>
    <path id="Trazado_9039" data-name="Trazado 9039" d="M1178.009,239.247h-8.762a3.33,3.33,0,0,1,0,6.572h8.762a3.33,3.33,0,0,0,0-6.572Z" fill="#eb5f29"/>
    <path id="Trazado_9040" data-name="Trazado 9040" d="M1158.555,245.819a3.286,3.286,0,0,1-3.285-3.286V232.456a3.285,3.285,0,1,1,6.571,0v10.077a3.286,3.286,0,0,1-3.286,3.286Z" fill="#ef792d"/>
  </g>
</svg>
