<svg xmlns="http://www.w3.org/2000/svg" width="200" height="200" viewBox="0 0 200 200">
  <g id="Grupo_9178" data-name="Grupo 9178" transform="translate(-706.847 -396.146)">
    <path id="Trazado_9084" data-name="Trazado 9084" d="M806.847,554.767l26.241-19.334A96.552,96.552,0,0,0,872.364,457.7V416.836a112.078,112.078,0,0,1-57.644-15.965l-7.873-4.725-7.873,4.725a112.078,112.078,0,0,1-57.644,15.965V457.7a96.551,96.551,0,0,0,39.276,77.731Zm0,0" fill="#4398d1"/>
    <path id="Trazado_9085" data-name="Trazado 9085" d="M788.792,524.329A83.064,83.064,0,0,1,755.123,457.7V429.87q1.725-.19,3.448-.428a125.834,125.834,0,0,0,47.5-16.745l.776-.468.776.468a125.9,125.9,0,0,0,50.948,17.173V457.7a83.061,83.061,0,0,1-33.666,66.62l-18.058,13.307Zm0,0" fill="#327fb3"/>
    <path id="Trazado_9086" data-name="Trazado 9086" d="M865.468,554.767,883.453,534.1a8.518,8.518,0,1,0-12.833-11.2l-15.5,18.077a37.434,37.434,0,0,0-20.69,33.476v21.7h37.931l30.29-48.463a27.58,27.58,0,0,0,4.193-14.62V487.526a8.62,8.62,0,1,0-17.241,0v39.655Zm0,0" fill="#ffcdbe"/>
    <path id="Trazado_9087" data-name="Trazado 9087" d="M748.226,554.767,730.24,534.1a8.519,8.519,0,1,1,12.834-11.2l15.5,18.077a37.435,37.435,0,0,1,20.69,33.476v21.7H741.33l-30.29-48.463a27.58,27.58,0,0,1-4.193-14.62V487.526a8.621,8.621,0,1,1,17.241,0v39.655Zm0,0" fill="#ffcdbe"/>
    <path id="Trazado_9088" data-name="Trazado 9088" d="M748.226,558.215a3.421,3.421,0,0,1-2.6-1.187l-17.991-20.664a3.448,3.448,0,0,1,5.2-4.524l17.986,20.666a3.448,3.448,0,0,1-2.6,5.709Zm0,0" fill="#faa68e"/>
    <path id="Trazado_9089" data-name="Trazado 9089" d="M865.468,558.215a3.448,3.448,0,0,1-2.6-5.709l17.985-20.666a3.449,3.449,0,0,1,5.2,4.524l-17.991,20.664a3.421,3.421,0,0,1-2.6,1.187Zm0,0" fill="#faa68e"/>
    <path id="Trazado_9090" data-name="Trazado 9090" d="M824.088,447.764a17.241,17.241,0,1,1-17.241-17.241,17.242,17.242,0,0,1,17.241,17.241Zm0,0" fill="#c0e54c"/>
    <path id="Trazado_9091" data-name="Trazado 9091" d="M824.088,478.8H789.606a20.689,20.689,0,0,0-20.69,20.689v3.792a82.5,82.5,0,0,0,19.876,20.946l18.055,13.3,18.058-13.307a82.535,82.535,0,0,0,19.873-20.942v-3.794a20.688,20.688,0,0,0-20.69-20.684Zm0,0" fill="#c0e54c"/>
    <path id="Trazado_9092" data-name="Trazado 9092" d="M807.623,412.7l-.776-.468-.776.465a125.839,125.839,0,0,1-47.5,16.748q-1.725.24-3.448.428v10.238q1.725-.193,3.448-.427a125.891,125.891,0,0,0,47.5-16.748l.776-.467.776.47a125.947,125.947,0,0,0,50.948,17.172V429.87A125.9,125.9,0,0,1,807.623,412.7Zm0,0" fill="#2f76a6"/>
    <path id="Trazado_9093" data-name="Trazado 9093" d="M833.943,481.3a120.068,120.068,0,0,1-53.165,36.08,82.436,82.436,0,0,0,8.014,6.845l18.055,13.3,18.058-13.307a82.535,82.535,0,0,0,19.873-20.942v-3.794A20.688,20.688,0,0,0,833.943,481.3Zm0,0" fill="#a3dc42"/>
    <rect id="Rectángulo_6103" data-name="Rectángulo 6103" width="6.897" height="6.897" transform="translate(765.468 437.526)" fill="#5ea9db"/>
    <rect id="Rectángulo_6104" data-name="Rectángulo 6104" width="6.897" height="6.897" transform="translate(841.33 437.526)" fill="#5ea9db"/>
    <rect id="Rectángulo_6105" data-name="Rectángulo 6105" width="6.897" height="6.897" transform="translate(765.468 465.112)" fill="#5ea9db"/>
    <rect id="Rectángulo_6106" data-name="Rectángulo 6106" width="6.897" height="6.897" transform="translate(841.33 465.112)" fill="#5ea9db"/>
    <rect id="Rectángulo_6107" data-name="Rectángulo 6107" width="6.897" height="6.897" transform="translate(803.399 516.836)" fill="#bfbfbf"/>
    <rect id="Rectángulo_6108" data-name="Rectángulo 6108" width="6.897" height="6.897" transform="translate(779.261 492.698)" fill="#bfbfbf"/>
    <rect id="Rectángulo_6109" data-name="Rectángulo 6109" width="6.897" height="6.897" transform="translate(827.537 492.698)" fill="#bfbfbf"/>
  </g>
</svg>
