<svg xmlns="http://www.w3.org/2000/svg" width="186.665" height="200" viewBox="0 0 186.665 200">
  <g id="Grupo_9172" data-name="Grupo 9172" transform="translate(-127.202 -396.146)">
    <path id="Trazado_9041" data-name="Trazado 9041" d="M230.534,592.814a3.331,3.331,0,0,1-3.332,3.332H213.867a3.332,3.332,0,0,1-3.332-3.332V547.546h20Zm0,0" fill="#d2a677"/>
    <path id="Trazado_9042" data-name="Trazado 9042" d="M221.279,547.546v45.266a3.334,3.334,0,0,1-3.333,3.334H227.2a3.333,3.333,0,0,0,3.332-3.334V547.546Zm0,0" fill="#b38a68"/>
    <path id="Trazado_9043" data-name="Trazado 9043" d="M278.731,582.812H162.337l3.817-13.332H274.915Zm0,0" fill="#b38a68"/>
    <path id="Trazado_9044" data-name="Trazado 9044" d="M173.867,549.558v-2.012h-20v2.012L141.75,591.9a3.334,3.334,0,0,0,3.205,4.25H158.02a3.338,3.338,0,0,0,3.207-2.417Zm0,0" fill="#d2a677"/>
    <path id="Trazado_9045" data-name="Trazado 9045" d="M164.612,547.546v2.012l-12.643,44.171a3.332,3.332,0,0,1-3.2,2.417h9.255a3.338,3.338,0,0,0,3.207-2.417l12.64-44.171v-2.012Zm0,0" fill="#b38a68"/>
    <path id="Trazado_9046" data-name="Trazado 9046" d="M267.2,549.558v-1.611h20v1.611L299.319,591.9a3.334,3.334,0,0,1-3.2,4.25H283.048a3.336,3.336,0,0,1-3.206-2.417Zm0,0" fill="#d2a677"/>
    <path id="Trazado_9047" data-name="Trazado 9047" d="M299.319,591.9,287.2,549.558v-1.611h-9.255v1.611L290.061,591.9a3.331,3.331,0,0,1-3.2,4.25h9.257a3.334,3.334,0,0,0,3.2-4.25Zm0,0" fill="#b38a68"/>
    <path id="Trazado_9048" data-name="Trazado 9048" d="M303.868,544.248H137.2a3.331,3.331,0,0,1-3.332-3.332V407.468H307.2V540.916a3.332,3.332,0,0,1-3.332,3.332Zm0,0" fill="#dbf2fd"/>
    <path id="Trazado_9049" data-name="Trazado 9049" d="M297.945,407.468V540.916a3.332,3.332,0,0,1-3.333,3.332h9.256a3.332,3.332,0,0,0,3.332-3.332V407.468Zm0,0" fill="#d8e2f3"/>
    <path id="Trazado_9050" data-name="Trazado 9050" d="M310.742,409.481H130.327a3.125,3.125,0,0,1-3.125-3.125v-7.085a3.125,3.125,0,0,1,3.125-3.125H310.742a3.124,3.124,0,0,1,3.125,3.125v7.085a3.124,3.124,0,0,1-3.125,3.125Zm0,0" fill="#817d84"/>
    <path id="Trazado_9051" data-name="Trazado 9051" d="M310.649,396.146h-9.255a3.219,3.219,0,0,1,3.218,3.219v6.9a3.219,3.219,0,0,1-3.218,3.219h9.255a3.218,3.218,0,0,0,3.218-3.219v-6.9a3.218,3.218,0,0,0-3.218-3.219Zm0,0" fill="#756e79"/>
    <path id="Trazado_9052" data-name="Trazado 9052" d="M310.742,549.479H130.327a3.124,3.124,0,0,1-3.125-3.125v-7.082a3.125,3.125,0,0,1,3.125-3.125H310.742a3.124,3.124,0,0,1,3.125,3.125v7.082a3.123,3.123,0,0,1-3.125,3.125Zm0,0" fill="#817d84"/>
    <path id="Trazado_9053" data-name="Trazado 9053" d="M310.649,536.147h-9.255a3.218,3.218,0,0,1,3.218,3.218v6.9a3.219,3.219,0,0,1-3.218,3.219h9.255a3.218,3.218,0,0,0,3.218-3.219v-6.9a3.217,3.217,0,0,0-3.218-3.218Zm0,0" fill="#756e79"/>
    <path id="Trazado_9054" data-name="Trazado 9054" d="M173.869,525.832a9.685,9.685,0,1,1,9.684-9.687,9.7,9.7,0,0,1-9.684,9.687Zm0-13.334a3.648,3.648,0,1,0,3.648,3.647,3.654,3.654,0,0,0-3.648-3.647Zm0,0" fill="#c0e54c"/>
    <path id="Trazado_9055" data-name="Trazado 9055" d="M267.2,439.4a9.686,9.686,0,1,1,9.686-9.684A9.7,9.7,0,0,1,267.2,439.4Zm0-13.334a3.648,3.648,0,1,0,3.649,3.65,3.655,3.655,0,0,0-3.649-3.65Zm0,0" fill="#c0e54c"/>
    <path id="Trazado_9056" data-name="Trazado 9056" d="M173.869,499.166a3.02,3.02,0,0,1-3.02-3.02v-6.667a3.019,3.019,0,0,1,6.037,0v6.667a3.02,3.02,0,0,1-3.017,3.02Zm0,0" fill="#8fccd2"/>
    <path id="Trazado_9057" data-name="Trazado 9057" d="M173.869,479.164a3.018,3.018,0,0,1-3.02-3.017V469.48a3.019,3.019,0,0,1,6.037,0v6.667a3.017,3.017,0,0,1-3.017,3.017Zm0,0" fill="#8fccd2"/>
    <path id="Trazado_9058" data-name="Trazado 9058" d="M180.534,459.165a3.01,3.01,0,0,1-2.134-.885l-13.334-13.334a3.019,3.019,0,0,1,4.27-4.268l13.332,13.334a3.019,3.019,0,0,1-2.134,5.153Zm0,0" fill="#fc6a78"/>
    <path id="Trazado_9059" data-name="Trazado 9059" d="M167.2,459.165a3.019,3.019,0,0,1-2.134-5.153L178.4,440.678a3.018,3.018,0,0,1,4.268,4.268L169.336,458.28a3.011,3.011,0,0,1-2.136.885Zm0,0" fill="#fc6a78"/>
    <path id="Trazado_9060" data-name="Trazado 9060" d="M220.534,502.5a3.013,3.013,0,0,1-2.134-.883l-13.334-13.334a3.018,3.018,0,1,1,4.268-4.269l13.335,13.333a3.018,3.018,0,0,1-2.135,5.153Zm0,0" fill="#fc6a78"/>
    <path id="Trazado_9061" data-name="Trazado 9061" d="M207.2,502.5a3.018,3.018,0,0,1-2.134-5.153L218.4,484.012a3.019,3.019,0,1,1,4.269,4.269l-13.333,13.334a3.018,3.018,0,0,1-2.136.883Zm0,0" fill="#fc6a78"/>
    <path id="Trazado_9062" data-name="Trazado 9062" d="M273.869,502.5a3.018,3.018,0,0,1-2.136-.883L258.4,488.281a3.019,3.019,0,1,1,4.269-4.269L276,497.345a3.018,3.018,0,0,1-2.132,5.153Zm0,0" fill="#fc6a78"/>
    <path id="Trazado_9063" data-name="Trazado 9063" d="M260.535,502.5a3.018,3.018,0,0,1-2.135-5.153l13.333-13.333a3.019,3.019,0,0,1,4.27,4.269l-13.334,13.334a3.016,3.016,0,0,1-2.134.883Zm0,0" fill="#fc6a78"/>
    <path id="Trazado_9064" data-name="Trazado 9064" d="M267.2,472.5h-80a3.018,3.018,0,1,1,0-6.036h76.982V449.32a3.018,3.018,0,0,1,6.036,0v20.16A3.018,3.018,0,0,1,267.2,472.5Zm0,0" fill="#817d84"/>
    <path id="Trazado_9065" data-name="Trazado 9065" d="M273.869,459.005a3.011,3.011,0,0,1-2.134-.884l-4.535-4.533-4.531,4.533a3.018,3.018,0,1,1-4.269-4.268l6.666-6.667a3.019,3.019,0,0,1,4.268,0L276,453.853a3.018,3.018,0,0,1-2.132,5.152Zm0,0" fill="#828282"/>
  </g>
</svg>
