<svg xmlns="http://www.w3.org/2000/svg" width="235.672" height="200" viewBox="0 0 235.672 200">
  <g id="Grupo_9170" data-name="Grupo 9170" transform="translate(-664.925 -104.748)">
    <path id="Trazado_8976" data-name="Trazado 8976" d="M826.762,151.361v15.552h25.365V151.361a12.682,12.682,0,1,0-25.365,0Zm0,0" fill="#ffe58a" fill-rule="evenodd"/>
    <path id="Trazado_8977" data-name="Trazado 8977" d="M841.9,162.168h10.23V151.361a12.73,12.73,0,0,0-12.689-12.689,12.5,12.5,0,0,0-5.107,1.088,12.723,12.723,0,0,1,7.566,11.6Zm0,0" fill="#ffd772" fill-rule="evenodd"/>
    <path id="Trazado_8978" data-name="Trazado 8978" d="M797.943,229.189V266.37h30.1a25.088,25.088,0,0,1,34.8,0h14.933V236.6a2.022,2.022,0,0,1,2.017-2.014h14.973V221a12.775,12.775,0,0,0-.148-3.265l-38.684-13.442L875.1,181.23l-7.916-14.706c-2.355-4.37-1.547-4.356-6.507-4.356H797.943Zm0,0" fill="#dbf2fd" fill-rule="evenodd"/>
    <path id="Trazado_8979" data-name="Trazado 8979" d="M669.938,137.005v92.844h132.75V137.005a2.453,2.453,0,0,0-2.446-2.433H672.371a2.442,2.442,0,0,0-2.433,2.433Zm0,0" fill="#dbf2fd" fill-rule="evenodd"/>
    <path id="Trazado_8980" data-name="Trazado 8980" d="M710.116,184.63a5.185,5.185,0,0,0,5.175,5.175h12.083v12.083a5.184,5.184,0,0,0,5.162,5.176h7.542a5.183,5.183,0,0,0,5.161-5.176V189.8h12.1a5.182,5.182,0,0,0,5.161-5.175V177.1a5.183,5.183,0,0,0-5.161-5.176h-12.1V159.843a5.18,5.18,0,0,0-5.161-5.162h-7.542a5.181,5.181,0,0,0-5.162,5.162v12.083H715.291a5.186,5.186,0,0,0-5.175,5.176Zm0,0" fill="#ff8086" fill-rule="evenodd"/>
    <path id="Trazado_8981" data-name="Trazado 8981" d="M669.938,234.581V266.37h32.731a25.1,25.1,0,0,1,34.815,0h65.2V234.581Zm0,0" fill="#dbf2fd" fill-rule="evenodd"/>
    <path id="Trazado_8982" data-name="Trazado 8982" d="M664.925,265.7v10.821a4.076,4.076,0,0,0,4.058,4.074h30.783c-.014-.31-.014,2.781-.014-.913s2.931-13.483,7.661-18.055h-38.43a4.077,4.077,0,0,0-4.058,4.073Zm0,0" fill="#e0dfe1" fill-rule="evenodd"/>
    <path id="Trazado_8983" data-name="Trazado 8983" d="M858.094,261.626c4.732,4.57,7.676,14.355,7.676,18.053s-.014.6-.014.913h30.768a4.079,4.079,0,0,0,4.073-4.074V265.7a4.077,4.077,0,0,0-4.073-4.073Zm0,0" fill="#e0dfe1" fill-rule="evenodd"/>
    <path id="Trazado_8984" data-name="Trazado 8984" d="M802.688,225.1v-88.1a2.453,2.453,0,0,0-2.446-2.433H785.388a2.454,2.454,0,0,1,2.449,2.433v88.1Zm0,0" fill="#d8e2f3" fill-rule="evenodd"/>
    <rect id="Rectángulo_6095" data-name="Rectángulo 6095" width="14.852" height="22.301" transform="translate(787.837 239.326)" fill="#d8e2f3"/>
    <path id="Trazado_8985" data-name="Trazado 8985" d="M873.231,236.6v25.031h21.533V234.581H875.233a2.018,2.018,0,0,0-2,2.014Zm0,0" fill="#ffe58a" fill-rule="evenodd"/>
    <path id="Trazado_8986" data-name="Trazado 8986" d="M841.979,186.471v26.011a5.272,5.272,0,0,0,5.255,5.255h47.382a13.6,13.6,0,0,0-1.182-2.474L875.1,181.228H847.234a5.268,5.268,0,0,0-5.255,5.243Zm0,0" fill="#dbeaff" fill-rule="evenodd"/>
    <path id="Trazado_8987" data-name="Trazado 8987" d="M900.6,276.518V265.7a4.077,4.077,0,0,0-4.073-4.071h-7.782A4.074,4.074,0,0,1,892.8,265.7v10.821a4.076,4.076,0,0,1-4.059,4.074h7.782a4.079,4.079,0,0,0,4.073-4.074Zm0,0" fill="#d3cfd2" fill-rule="evenodd"/>
    <path id="Trazado_8988" data-name="Trazado 8988" d="M864.452,181.228H875.1l-7.916-14.706c-2.355-4.368-1.547-4.354-6.507-4.354H851.71c2.407,0,3.577,2.029,4.826,4.354Zm0,0" fill="#d8e2f3" fill-rule="evenodd"/>
    <path id="Trazado_8989" data-name="Trazado 8989" d="M884.844,217.737h9.772a13.6,13.6,0,0,0-1.182-2.474L875.1,181.228H864.452Zm0,0" fill="#c3ddff" fill-rule="evenodd"/>
    <path id="Trazado_8990" data-name="Trazado 8990" d="M885.005,234.581h9.759V221a12.775,12.775,0,0,0-.148-3.265h-9.772a12,12,0,0,1,.161,3.265Zm0,0" fill="#f0f0f0" fill-rule="evenodd"/>
    <rect id="Rectángulo_6096" data-name="Rectángulo 6096" width="132.75" height="14.221" transform="translate(669.938 225.104)" fill="#ff8086"/>
    <rect id="Rectángulo_6097" data-name="Rectángulo 6097" width="14.852" height="14.221" transform="translate(787.837 225.104)" fill="#e5646e"/>
    <path id="Trazado_8991" data-name="Trazado 8991" d="M732.737,261.626c4.733,4.57,7.677,14.355,7.677,18.053s-.015.6-.029.913h84.738c-.015-.31-.015,2.783-.015-.913s2.944-13.483,7.662-18.053Zm0,0" fill="#e0dfe1" fill-rule="evenodd"/>
    <path id="Trazado_8992" data-name="Trazado 8992" d="M828.038,261.626a25.027,25.027,0,0,0-7.674,18.053c0,.309,0,.6.014.913a25.072,25.072,0,0,0,50.11,0c.013-.31.027-.6.027-.913a25.078,25.078,0,0,0-42.477-18.053Zm0,0" fill="#7e707d" fill-rule="evenodd"/>
    <path id="Trazado_8993" data-name="Trazado 8993" d="M836.132,280.592a9.352,9.352,0,0,0,18.615,0c.027-.31.041-.6.041-.913a9.349,9.349,0,1,0-18.7,0c0,.309.012.6.041.913Zm0,0" fill="#f9f7f8" fill-rule="evenodd"/>
    <path id="Trazado_8994" data-name="Trazado 8994" d="M720.076,254.609a25.049,25.049,0,0,0-25.069,25.07c0,.309,0,.6.014.913a25.072,25.072,0,0,0,50.111,0c.012-.31.012-.6.012-.913a25.045,25.045,0,0,0-25.068-25.07Zm0,15.713a9.363,9.363,0,0,1,9.355,9.357c0,.309-.012.6-.041.913a9.352,9.352,0,0,1-18.615,0c-.027-.31-.056-.6-.056-.913a9.365,9.365,0,0,1,9.357-9.357Zm0,0" fill="#7e707d" fill-rule="evenodd"/>
    <path id="Trazado_8995" data-name="Trazado 8995" d="M720.076,270.322a9.365,9.365,0,0,0-9.357,9.357c0,.309.027.6.056.913a9.352,9.352,0,0,0,18.615,0c.027-.31.041-.6.041-.913a9.363,9.363,0,0,0-9.355-9.357Zm0,0" fill="#f9f7f8" fill-rule="evenodd"/>
    <path id="Trazado_8996" data-name="Trazado 8996" d="M720.076,304.748a25.065,25.065,0,0,0,25.056-24.156c.012-.31.012-.6.012-.913a25.085,25.085,0,0,0-32.032-24.089,24.877,24.877,0,0,1,14.53,6.036c.336.295.672.6.995.914a24.993,24.993,0,0,1,7.674,18.052c0,.309-.011.6-.026.913a25.076,25.076,0,0,1-18.079,23.176c.619.038,1.238.067,1.87.067Zm0,0" fill="#6a5d6a" fill-rule="evenodd"/>
    <path id="Trazado_8997" data-name="Trazado 8997" d="M845.433,304.748a25.054,25.054,0,0,0,25.055-24.156c.013-.31.027-.6.027-.913a25.1,25.1,0,0,0-32.046-24.089A24.877,24.877,0,0,1,853,261.626c.336.295.674.6.995.914a25,25,0,0,1,7.677,18.052c0,.309-.014.6-.014.913a25.109,25.109,0,0,1-18.094,23.176c.619.038,1.238.067,1.87.067Zm0,0" fill="#6a5d6a" fill-rule="evenodd"/>
    <rect id="Rectángulo_6098" data-name="Rectángulo 6098" width="9.76" height="27.045" transform="translate(885.005 234.581)" fill="#ffd772"/>
    <path id="Trazado_8998" data-name="Trazado 8998" d="M894.616,221.293H847.234a8.822,8.822,0,0,1-8.813-8.811V186.471a8.815,8.815,0,0,1,8.813-8.8H875.1a3.557,3.557,0,0,1,0,7.113H847.234a1.716,1.716,0,0,0-1.7,1.686v26.011a1.721,1.721,0,0,0,1.7,1.7h47.382a3.557,3.557,0,0,1,0,7.114Zm0,0" fill="#7e707d"/>
    <path id="Trazado_8999" data-name="Trazado 8999" d="M688.906,160.118a3.555,3.555,0,0,1-3.558-3.555v-6.048a3.556,3.556,0,1,1,7.113,0v6.048a3.555,3.555,0,0,1-3.555,3.555Zm0,0" fill="#7e707d"/>
    <path id="Trazado_9000" data-name="Trazado 9000" d="M783.722,160.118a3.553,3.553,0,0,1-3.555-3.555v-6.048a3.555,3.555,0,1,1,7.11,0v6.048a3.554,3.554,0,0,1-3.555,3.555Zm0,0" fill="#7e707d"/>
    <path id="Trazado_9001" data-name="Trazado 9001" d="M839.438,120.519a3.556,3.556,0,0,1-3.556-3.556v-8.657a3.557,3.557,0,1,1,7.114,0v8.657a3.558,3.558,0,0,1-3.558,3.556Zm0,0" fill="#ffe58a"/>
    <path id="Trazado_9002" data-name="Trazado 9002" d="M822.963,130.01a3.558,3.558,0,0,1-2.949-1.563l-5.874-8.669a3.556,3.556,0,1,1,5.889-3.989l5.873,8.669a3.558,3.558,0,0,1-2.939,5.552Zm0,0" fill="#ffe58a"/>
    <path id="Trazado_9003" data-name="Trazado 9003" d="M855.927,130.01a3.558,3.558,0,0,1-2.939-5.552l5.873-8.669a3.556,3.556,0,1,1,5.888,3.989l-5.873,8.669a3.559,3.559,0,0,1-2.949,1.563Zm0,0" fill="#ffe58a"/>
  </g>
</svg>
