<svg xmlns="http://www.w3.org/2000/svg" width="248.897" height="248.897" viewBox="0 0 248.897 248.897">
  <g id="Grupo_9653" data-name="Grupo 9653" transform="translate(-378.903 -2187.035)">
    <circle id="Elipse_154" data-name="Elipse 154" cx="124.448" cy="124.448" r="124.448" transform="translate(378.903 2187.035)" fill="#b2ddfb"/>
    <g id="Grupo_9652" data-name="Grupo 9652">
      <path id="Trazado_9346" data-name="Trazado 9346" d="M578.611,2267.086l-4,7.11-6.338,14.824a7.984,7.984,0,0,0,1.669,8.8l7.5,7.5a4.012,4.012,0,0,1,0,5.658l-1.669,1.669a12.06,12.06,0,0,1-13.553,2.235,10.864,10.864,0,0,0-13.071,1.754c-8.489,8.486-28.294,39.605-48.1,59.407-18.42,18.416-46.685,41.755-68.725,49.478a7.948,7.948,0,0,1-8.234-1.952,6.523,6.523,0,0,1-.056-9.223c.141-.141.311-.254.453-.4,15.419-12.758,59.161-49.817,82.22-77.512,19.551-23.452,28.294-38.812,31.83-46.083a35.715,35.715,0,0,1,6.876-9.59l10.214-10.212-11.318-11.316L534.1,2269.444a35.723,35.723,0,0,1-9.591,6.874c-7.272,3.536-22.635,12.277-46.09,31.825-27.7,23.055-64.764,66.791-77.524,82.208-.142.142-.255.312-.4.453a6.525,6.525,0,0,1-9.224-.056,7.947,7.947,0,0,1-1.952-8.233c7.724-22.037,31.066-50.3,49.485-68.714,19.8-19.8,50.928-39.6,59.416-48.092a10.858,10.858,0,0,0,1.754-13.069,12.055,12.055,0,0,1,2.236-13.551l1.669-1.669a4.014,4.014,0,0,1,5.659,0l7.5,7.5a7.993,7.993,0,0,0,8.8,1.669l14.825-6.337,5.608-2.93,32.341,29.767Z" fill="#007aba"/>
      <path id="Trazado_9347" data-name="Trazado 9347" d="M588.761,2265.709a27.793,27.793,0,0,1-14.429,7.7,28.026,28.026,0,0,1-32.877-32.872,27.888,27.888,0,0,1,7.7-14.428c10.95-10.947,42.525-42.518,62.274-22.659,19.777,19.831-11.713,51.316-22.663,62.264Z" fill="#8ba5a5"/>
      <path id="Trazado_9348" data-name="Trazado 9348" d="M560.47,2237.417a12,12,0,1,1,0,16.975,12,12,0,0,1,0-16.975Z" fill="#e8edee"/>
      <path id="Trazado_9349" data-name="Trazado 9349" d="M588.759,2265.7a27.993,27.993,0,0,0,0-39.588l22.655-22.655c19.774,19.813-11.722,51.31-22.655,62.243Z" fill="#bcc3c6"/>
    </g>
  </g>
</svg>
