<svg xmlns="http://www.w3.org/2000/svg" width="248.897" height="248.897" viewBox="0 0 248.897 248.897">
  <g id="Grupo_9655" data-name="Grupo 9655" transform="translate(-682.911 -2187.035)">
    <circle id="Elipse_155" data-name="Elipse 155" cx="124.448" cy="124.448" r="124.448" transform="translate(682.911 2187.035)" fill="#b2ddfb"/>
    <g id="Grupo_9654" data-name="Grupo 9654">
      <path id="Trazado_9350" data-name="Trazado 9350" d="M851.485,2228.827l-26.213-1.224v169.509a6.552,6.552,0,0,0,6.553,6.553h13.106a6.552,6.552,0,0,0,6.554-6.553Zm0,0" fill="#fcc12a"/>
      <path id="Trazado_9351" data-name="Trazado 9351" d="M851.485,2228.827l-13.107-.612v175.45h6.553a6.552,6.552,0,0,0,6.554-6.553Zm0,0" fill="#f7a52d"/>
      <path id="Trazado_9352" data-name="Trazado 9352" d="M813.635,2230.043a13.106,13.106,0,0,1,14.538-21.811,22.334,22.334,0,0,0,24.779,0,48.557,48.557,0,0,1,53.859,0,13.106,13.106,0,0,1-14.539,21.811,22.336,22.336,0,0,0-24.78,0,48.546,48.546,0,0,1-53.857,0Zm0,0" fill="#0a789b"/>
      <path id="Trazado_9353" data-name="Trazado 9353" d="M825.272,2397.112v19.66a6.552,6.552,0,0,0,6.553,6.553h13.106a6.552,6.552,0,0,0,6.554-6.553v-19.66Zm0,0" fill="#0a789b"/>
      <path id="Trazado_9354" data-name="Trazado 9354" d="M906.809,2208.232a48.554,48.554,0,0,0-53.857,0,22.32,22.32,0,0,1-14.574,3.643v26.266a48.511,48.511,0,0,0,29.114-8.1,22.336,22.336,0,0,1,24.78,0,13.106,13.106,0,1,0,14.537-21.811Zm0,0" fill="#08475e"/>
      <path id="Trazado_9355" data-name="Trazado 9355" d="M844.931,2423.325a6.552,6.552,0,0,0,6.554-6.553v-19.66H838.378v26.213Zm0,0" fill="#08475e"/>
      <path id="Trazado_9356" data-name="Trazado 9356" d="M754.5,2256.437v140.675a6.551,6.551,0,0,0,6.553,6.553h13.106a6.553,6.553,0,0,0,6.553-6.553V2256.437a6.552,6.552,0,0,0-6.553-6.553H761.051a6.551,6.551,0,0,0-6.553,6.553Zm0,0" fill="#fcc12a"/>
      <path id="Trazado_9357" data-name="Trazado 9357" d="M774.157,2249.884H767.6v153.781h6.553a6.553,6.553,0,0,0,6.553-6.553V2256.437a6.552,6.552,0,0,0-6.553-6.553Zm0,0" fill="#f7a52d"/>
      <path id="Trazado_9358" data-name="Trazado 9358" d="M761.051,2423.325h13.106a6.553,6.553,0,0,0,6.553-6.553v-19.66H754.5v19.66a6.551,6.551,0,0,0,6.553,6.553Zm0,0" fill="#0a789b"/>
      <path id="Trazado_9359" data-name="Trazado 9359" d="M741.391,2199.643a39.318,39.318,0,0,0-39.319,39.319,13.106,13.106,0,0,0,26.213,0,13.107,13.107,0,0,1,26.213,0v17.475H780.71v-17.475a39.317,39.317,0,0,0-39.319-39.319Zm0,0" fill="#bcc3c6"/>
      <path id="Trazado_9360" data-name="Trazado 9360" d="M780.71,2238.962a39.213,39.213,0,0,0-13.106-29.3v46.78H780.71Zm0,0" fill="#8ba5a5"/>
      <path id="Trazado_9361" data-name="Trazado 9361" d="M774.157,2423.325a6.553,6.553,0,0,0,6.553-6.553v-19.66H767.6v26.213Zm0,0" fill="#08475e"/>
    </g>
  </g>
</svg>
