<svg xmlns="http://www.w3.org/2000/svg" width="248.897" height="248.897" viewBox="0 0 248.897 248.897">
  <g id="Grupo_9651" data-name="Grupo 9651" transform="translate(-89.703 -2185.423)">
    <circle id="Elipse_153" data-name="Elipse 153" cx="124.448" cy="124.448" r="124.448" transform="translate(89.703 2185.423)" fill="#b2ddfb"/>
    <path id="Trazado_9319" data-name="Trazado 9319" d="M240.062,2390.586a16.037,16.037,0,0,0,15.093-16.988l-3.191-63.052a4.713,4.713,0,0,1,4.648-5h23.509a4.713,4.713,0,0,0-4.648,5l3.191,63.052a16.037,16.037,0,0,1-15.093,16.988c-13.276.61-30-1.167-30,18.886v10.015a4.781,4.781,0,0,0,4.727,4.833H214.787a4.781,4.781,0,0,1-4.727-4.833v-10.015c0-20.053,16.725-18.276,30-18.886Z" fill="#ed6c33"/>
    <path id="Trazado_9320" data-name="Trazado 9320" d="M227.228,2419.487v-10.015c0-20.053,16.726-18.277,30-18.886a16.036,16.036,0,0,0,15.093-16.988l-3.191-63.052a4.713,4.713,0,0,1,4.648-5h6.341a4.713,4.713,0,0,0-4.648,5l3.191,63.052a16.037,16.037,0,0,1-15.093,16.988c-13.276.609-30-1.167-30,18.886v10.015a4.781,4.781,0,0,0,4.727,4.833h-6.341a4.781,4.781,0,0,1-4.727-4.833Z" fill="#ea562d"/>
    <path id="Trazado_9321" data-name="Trazado 9321" d="M256.612,2305.541h23.509a4.713,4.713,0,0,0-4.648,5l3.191,63.052a16.417,16.417,0,0,1-1.273,7.244c-7.827-5.483-5.082-13.815-7.963-20.22-2.455-5.458-9.6-8.009-15.252-6.37h0c-2.155-45.389-2.567-43.888-1.919-45.636a4.661,4.661,0,0,1,4.355-3.075Z" fill="#f7a52d"/>
    <path id="Trazado_9322" data-name="Trazado 9322" d="M269.132,2310.546a4.713,4.713,0,0,1,4.648-5h6.341a4.713,4.713,0,0,0-4.648,5h0c3.369,66.564,3.4,63.97,3.016,66.434a16.421,16.421,0,0,1-1.1,3.861h0a13.864,13.864,0,0,1-5.051-6.585c-.009-.844.186,3.508-3.208-63.711Z" fill="#f0802e"/>
    <path id="Trazado_9323" data-name="Trazado 9323" d="M210.06,2412.809h23.509v6.677a4.781,4.781,0,0,0,4.727,4.834H214.787a4.781,4.781,0,0,1-4.727-4.834v-6.677Z" fill="#ababac"/>
    <path id="Trazado_9324" data-name="Trazado 9324" d="M233.569,2412.809v6.678h0a4.781,4.781,0,0,0,4.726,4.833h-6.34a4.781,4.781,0,0,1-4.727-4.833v-6.678Z" fill="#939596"/>
    <path id="Trazado_9325" data-name="Trazado 9325" d="M324.395,2305.541H279.882a4.713,4.713,0,0,0-4.648,5l3.191,63.052a16.037,16.037,0,0,1-15.093,16.988c-13.277.609-30-1.167-30,18.886v10.014a4.781,4.781,0,0,0,4.727,4.834h39.726a11.671,11.671,0,0,0,6.144-1.755l7.157-4.436a1.725,1.725,0,0,1,2.62,1.509v2.174a2.481,2.481,0,0,0,2.452,2.508h22.851a3.109,3.109,0,0,0,3.073-2.961l6.512-111.262a4.259,4.259,0,0,0-4.2-4.556Z" fill="#f7a52d"/>
    <path id="Trazado_9326" data-name="Trazado 9326" d="M315.866,2421.36l6.512-111.263a4.259,4.259,0,0,0-4.2-4.556h6.214a4.259,4.259,0,0,1,4.2,4.556L322.08,2421.36a3.109,3.109,0,0,1-3.073,2.96h-6.214a3.109,3.109,0,0,0,3.073-2.96Z" fill="#f0802e"/>
    <path id="Trazado_9327" data-name="Trazado 9327" d="M292.7,2360.622c-2.455-5.459-9.6-8.009-15.253-6.37h0l-2.212-43.706a4.713,4.713,0,0,1,4.648-5h44.513a4.259,4.259,0,0,1,4.2,4.556l-4.283,73.177H308.337a13.691,13.691,0,0,1-13.436-11.8c-1.1-7.369-1.11-8.426-2.2-10.854Z" fill="#fcc12a"/>
    <path id="Trazado_9328" data-name="Trazado 9328" d="M324.309,2383.274H318.1l4.283-73.177a4.259,4.259,0,0,0-4.2-4.556h6.214a4.233,4.233,0,0,1,4.162,3.694c.08.583-3.363,58.808-4.248,74.039Z" fill="#f7a52d"/>
    <path id="Trazado_9329" data-name="Trazado 9329" d="M322.581,2412.809l-.5,8.551a3.109,3.109,0,0,1-3.073,2.96H296.156a2.48,2.48,0,0,1-2.452-2.507v-2.175a1.725,1.725,0,0,0-2.62-1.509l-7.157,4.436a11.662,11.662,0,0,1-6.144,1.755H238.057a4.781,4.781,0,0,1-4.727-4.834v-6.678h89.251Z" fill="#ababac"/>
    <path id="Trazado_9330" data-name="Trazado 9330" d="M322.08,2421.36a3.109,3.109,0,0,1-3.073,2.96h-6.214a3.109,3.109,0,0,0,3.073-2.96l.5-8.551h6.214c-.183,3.117-.335,5.718-.5,8.551Z" fill="#939596"/>
    <g id="Grupo_9650" data-name="Grupo 9650">
      <path id="Trazado_9331" data-name="Trazado 9331" d="M172.021,2248.92a6.1,6.1,0,0,1,8.619,0l5.685,5.686V2208.5a5.89,5.89,0,0,1,5.891-5.891,5.6,5.6,0,0,1,5.6,5.6v-7.037a5.746,5.746,0,1,1,11.491,0v7.182a5.746,5.746,0,1,1,11.492,0v8.618a5.745,5.745,0,0,1,5.746-5.745,5.894,5.894,0,0,1,5.891,5.744l2.729,108.6h-52l3.011-51.174a5.686,5.686,0,0,0-1.656-4.355l-12.5-12.5a6.1,6.1,0,0,1,0-8.619Zm0,0" fill="#fcc12a"/>
      <path id="Trazado_9332" data-name="Trazado 9332" d="M232.44,2217.12a6.007,6.007,0,0,0-4.963-5.82,5.716,5.716,0,0,0-3.308.443,5.887,5.887,0,0,1,3.484,5.225l2.083,82.885a17.239,17.239,0,0,1-17.233,17.67H183.637l-.473,8.043h52Zm0,0" fill="#f7a52d"/>
      <path id="Trazado_9333" data-name="Trazado 9333" d="M180.567,2336.771h57.195a3.005,3.005,0,0,0,3.005-3v-5.193a3.006,3.006,0,0,0-3.005-3.006H180.567a3.006,3.006,0,0,0-3.005,3.006v5.193a3.005,3.005,0,0,0,3.005,3Zm0,0" fill="#fdcd55"/>
      <path id="Trazado_9334" data-name="Trazado 9334" d="M237.76,2336.771H230.8a3,3,0,0,0,3.006-3v-5.193a3.005,3.005,0,0,0-3.006-3.006h6.956a3.006,3.006,0,0,1,3.007,3.006v5.193a3.006,3.006,0,0,1-3.007,3Zm0,0" fill="#fcc12a"/>
      <path id="Trazado_9335" data-name="Trazado 9335" d="M168.449,2248.92a6.1,6.1,0,0,0-8.619,0l-5.685,5.686V2208.5a5.89,5.89,0,0,0-5.891-5.891,5.6,5.6,0,0,0-5.6,5.6v-7.037a5.746,5.746,0,0,0-11.492,0v7.182a5.746,5.746,0,1,0-11.491,0v8.618a5.745,5.745,0,0,0-5.746-5.745,5.894,5.894,0,0,0-5.891,5.744l-2.729,108.6h52l-3.011-51.174a5.686,5.686,0,0,1,1.656-4.355l12.5-12.5a6.1,6.1,0,0,0,0-8.619Zm0,0" fill="#fcc12a"/>
      <path id="Trazado_9336" data-name="Trazado 9336" d="M168.449,2248.92a6.074,6.074,0,0,0-4.532-1.774,6.092,6.092,0,0,1-.866,7.52l-13.071,13.108a5.737,5.737,0,0,0-1.665,4.414L150,2299.213a17.237,17.237,0,0,1-17.2,18.31H105.508l-.2,8.043h52l-3.011-51.174a5.686,5.686,0,0,1,1.656-4.355l12.5-12.5a6.1,6.1,0,0,0,0-8.619Zm0,0" fill="#f7a52d"/>
      <path id="Trazado_9337" data-name="Trazado 9337" d="M149.548,2208.5v43.237a2.874,2.874,0,0,0,2.873,2.873h1.724V2208.5a5.89,5.89,0,0,0-5.891-5.891,5.578,5.578,0,0,0-2.266.482,5.89,5.89,0,0,1,3.56,5.409Zm0,0" fill="#f7a52d"/>
      <path id="Trazado_9338" data-name="Trazado 9338" d="M159.9,2336.771H102.71a3.006,3.006,0,0,1-3.007-3v-5.193a3.006,3.006,0,0,1,3.007-3.006H159.9a3,3,0,0,1,3.005,3.006v5.193a3.005,3.005,0,0,1-3.005,3Zm0,0" fill="#fdcd55"/>
      <path id="Trazado_9339" data-name="Trazado 9339" d="M159.9,2325.567h-6.957a3.006,3.006,0,0,1,3.005,3.006v5.193a3.005,3.005,0,0,1-3.005,3H159.9a3.005,3.005,0,0,0,3.005-3v-5.193a3.006,3.006,0,0,0-3.005-3.006Zm0,0" fill="#fcc12a"/>
      <path id="Trazado_9340" data-name="Trazado 9340" d="M220.8,2208.352v33.326a2.133,2.133,0,1,1-4.266,0V2202.8a5.74,5.74,0,0,1,4.266,5.554Zm0,0" fill="#f7a52d"/>
      <path id="Trazado_9341" data-name="Trazado 9341" d="M209.309,2201.169v40.509a2.133,2.133,0,1,1-4.266,0v-46.062a5.754,5.754,0,0,1,4.266,5.553Zm0,0" fill="#f7a52d"/>
      <path id="Trazado_9342" data-name="Trazado 9342" d="M197.816,2208.207v33.471a2.133,2.133,0,1,1-4.266,0v-38.912a5.6,5.6,0,0,1,4.266,5.441Zm0,0" fill="#f7a52d"/>
      <path id="Trazado_9343" data-name="Trazado 9343" d="M119.671,2216.969v24.709a2.133,2.133,0,1,1-4.266,0v-30.257a5.738,5.738,0,0,1,4.266,5.548Zm0,0" fill="#f7a52d"/>
      <path id="Trazado_9344" data-name="Trazado 9344" d="M131.161,2208.352v33.326a2.133,2.133,0,1,1-4.266,0V2202.8a5.746,5.746,0,0,1,4.266,5.554Zm0,0" fill="#f7a52d"/>
      <path id="Trazado_9345" data-name="Trazado 9345" d="M142.654,2201.169v40.509a2.134,2.134,0,1,1-4.267,0v-46.062a5.748,5.748,0,0,1,4.267,5.553Zm0,0" fill="#f7a52d"/>
    </g>
  </g>
</svg>
